<?xml version="1.0" standalone="no"?><svg xmlns="http://www.w3.org/2000/svg" viewBox="0 0 1440 320"><path fill="#feea00" fill-opacity="1" d="M0,288L34.3,250.7C68.6,213,137,139,206,133.3C274.3,128,343,192,411,208C480,224,549,192,617,181.3C685.7,171,754,181,823,176C891.4,171,960,149,1029,160C1097.1,171,1166,213,1234,224C1302.9,235,1371,213,1406,202.7L1440,192L1440,0L1405.7,0C1371.4,0,1303,0,1234,0C1165.7,0,1097,0,1029,0C960,0,891,0,823,0C754.3,0,686,0,617,0C548.6,0,480,0,411,0C342.9,0,274,0,206,0C137.1,0,69,0,34,0L0,0Z"></path></svg>